<?xml version="1.0" encoding="iso-8859-1"?>
<!-- Generator: Adobe Illustrator 18.0.0, SVG Export Plug-In . SVG Version: 6.00 Build 0)  -->
<!DOCTYPE svg PUBLIC "-//W3C//DTD SVG 1.1//EN" "http://www.w3.org/Graphics/SVG/1.1/DTD/svg11.dtd">
<svg version="1.1" id="Capa_1" xmlns="http://www.w3.org/2000/svg" xmlns:xlink="http://www.w3.org/1999/xlink" x="0px" y="0px"
	 viewBox="0 0 417.651 417.651" style="enable-background:new 0 0 417.651 417.651;" xml:space="preserve">
<path d="M312.498,61.61C284.971,21.88,248.155,0,208.831,0c-39.325,0-76.143,21.88-103.672,61.61
	c-27.063,39.059-41.968,90.881-41.968,145.92c0,36.33,6.662,72.079,19.264,103.381c1.159,2.88,4.325,4.396,7.296,3.504l15.904-4.789
	c4.952,4.992,11.688,7.857,18.937,7.857c7.457,0,14.413-3.166,19.364-8.351V362c0,15.213,12.376,27.589,27.589,27.589
	s27.588-12.376,27.588-27.589v-39c0-5.346,4.349-9.694,9.694-9.694c5.345,0,9.694,4.349,9.694,9.694v67.063
	c0,15.213,12.376,27.589,27.589,27.589s27.588-12.376,27.588-27.589v-80.932c4.951,5.185,11.907,8.352,19.364,8.352
	c7.276,0,14.035-2.886,18.992-7.912l15.822,4.837c0.583,0.179,1.173,0.264,1.755,0.264c2.389,0,4.628-1.437,5.564-3.759
	c12.604-31.276,19.265-67.025,19.265-103.382C354.461,152.49,339.558,100.668,312.498,61.61z M293.063,305.482
	c-6.5,0-12.32-4.355-14.152-10.593l-5.216-17.755v-45.72c0-3.313-2.687-6-6-6s-6,2.687-6,6l0.003,158.647
	c0,8.596-6.993,15.589-15.588,15.589c-8.596,0-15.589-6.993-15.589-15.589V323c0-11.962-9.732-21.694-21.694-21.694
	c-11.962,0-21.694,9.732-21.694,21.694v39c0,8.596-6.993,15.589-15.588,15.589s-15.589-6.993-15.589-15.589l0.004-130.585
	c0-3.313-2.687-6-6-6s-6,2.687-6,6v45.72l-5.216,17.756c-1.832,6.236-7.651,10.592-14.152,10.592c-5.16,0-9.855-2.623-12.56-7.017
	c-2.706-4.394-2.934-9.768-0.611-14.374c1.54-3.053,2.354-6.473,2.354-9.892v-31.037c0-36.803,29.941-66.743,66.743-66.743h56.619
	c36.803,0,66.744,29.94,66.744,66.743V274.2c0,3.418,0.813,6.838,2.353,9.891c2.323,4.607,2.095,9.981-0.61,14.375
	S298.222,305.482,293.063,305.482z M208.827,164.42c-28.104,0-50.969-22.865-50.969-50.97s22.865-50.969,50.969-50.969
	s50.969,22.864,50.969,50.969S236.932,164.42,208.827,164.42z M326.059,301.304l-7.552-2.309c2.174-6.631,1.682-13.879-1.559-20.306
	c-0.698-1.385-1.067-2.938-1.067-4.488v-31.037c0-40.708-31.051-74.3-70.712-78.336c16.095-11.418,26.629-30.184,26.629-51.376
	c0-34.721-28.248-62.969-62.969-62.969s-62.969,28.248-62.969,62.969c0,21.192,10.534,39.958,26.628,51.376
	c-39.661,4.036-70.712,37.628-70.712,78.336V274.2c0,1.551-0.369,3.103-1.068,4.488c-3.25,6.445-3.735,13.714-1.541,20.359
	l-7.564,2.278c-10.749-28.65-16.412-60.951-16.412-93.795C75.191,99.715,135.141,12,208.831,12
	c73.684,0,133.63,87.715,133.63,195.53C342.461,240.389,336.802,272.68,326.059,301.304z"/>
<g>
</g>
<g>
</g>
<g>
</g>
<g>
</g>
<g>
</g>
<g>
</g>
<g>
</g>
<g>
</g>
<g>
</g>
<g>
</g>
<g>
</g>
<g>
</g>
<g>
</g>
<g>
</g>
<g>
</g>
</svg>
