<?xml version="1.0" encoding="iso-8859-1"?>
<!-- Generator: Adobe Illustrator 18.0.0, SVG Export Plug-In . SVG Version: 6.00 Build 0)  -->
<!DOCTYPE svg PUBLIC "-//W3C//DTD SVG 1.1//EN" "http://www.w3.org/Graphics/SVG/1.1/DTD/svg11.dtd">
<svg version="1.1" id="Capa_1" xmlns="http://www.w3.org/2000/svg" xmlns:xlink="http://www.w3.org/1999/xlink" x="0px" y="0px"
	 viewBox="0 0 400.775 400.775" style="enable-background:new 0 0 400.775 400.775;" xml:space="preserve">
<g>
	<path d="M366.56,189.884l-40.55-49.247c-1.222-1.483-3.093-2.289-4.998-2.175c-1.919,0.117-3.665,1.146-4.696,2.768l-13.287,20.888
		c-1.309,2.054-3.546,3.28-5.985,3.28c-1.317,0-2.609-0.372-3.736-1.077c-2.085-1.303-3.329-3.547-3.329-6.004
		c0-0.519,0.065-1.073,0.187-1.608l29.811-128.064c0.367-1.578,0.081-3.237-0.794-4.6c-0.874-1.363-2.263-2.315-3.85-2.639
		L257.389,9.581c-3.056-0.624-6.081,1.198-6.958,4.193l-10.714,36.587c-0.711,2.432-2.968,4.13-5.487,4.13
		c-0.646,0-1.289-0.112-1.928-0.337c-2.274-0.798-3.803-2.961-3.803-5.383c0-0.11-0.003-0.216,0-0.292
		c0.004-0.04,0.007-0.08,0.01-0.119l2.921-41.943c0.115-1.66-0.463-3.293-1.598-4.51C228.697,0.691,227.109,0,225.445,0h-46.118
		c-2.896,0-5.378,2.068-5.901,4.917l-8.963,48.814c-0.448,2.44-2.571,4.211-5.049,4.211c-2.84,0-5.151-2.295-5.151-5.116
		c0-0.271,0.027-0.566,0.081-0.884l7.249-42.57c0.358-2.103-0.427-4.237-2.062-5.606c-1.635-1.37-3.873-1.77-5.881-1.048
		l-46.118,16.555c-2.108,0.756-3.619,2.625-3.918,4.844L98.67,60.708c-0.247,1.836-1.625,3.355-3.416,3.775
		c-0.368,0.085-0.727,0.129-1.067,0.129c-1.18,0-2.342-0.491-3.189-1.348c-0.845-0.855-1.303-1.997-1.289-3.212l0.308-25.837
		c0.025-2.092-1.042-4.046-2.815-5.156c-1.772-1.11-3.996-1.217-5.868-0.282L47.752,45.568c-1.865,0.933-3.112,2.766-3.294,4.842
		l-10.3,117.291c-3.427,38.978-0.125,77.94,9.812,115.807c2.701,10.28,4.071,20.883,4.071,31.514
		c0,14.024-2.364,27.869-7.029,41.152l-2.152,6.138c-0.909,2.592,0.059,5.47,2.348,6.987c1.94,1.285,48.248,31.477,112.457,31.477
		c32.194,0,63.247-7.7,92.296-22.884c1.979-1.035,3.221-3.083,3.221-5.317c0-35.773,19.329-68.957,50.448-86.604
		c8.871-5.039,17.032-11.2,24.253-18.309c7.243-7.118,13.539-15.18,18.712-23.959c9.033-15.322,17.374-31.305,24.789-47.507
		C368.339,194.106,368.02,191.656,366.56,189.884z M77.901,43.91l-0.19,16c-0.053,4.448,1.635,8.634,4.752,11.789
		c3.085,3.123,7.359,4.913,11.724,4.913c1.252,0,2.524-0.148,3.794-0.443c6.621-1.553,11.677-7.125,12.581-13.859l4.455-32.974
		l33.021-11.853l-5.528,32.465c-0.167,0.998-0.248,1.939-0.248,2.879c0,9.438,7.694,17.116,17.151,17.116
		c8.271,0,15.358-5.907,16.852-14.045L184.325,12h34.687l-2.471,35.484c-0.035,0.422-0.042,0.846-0.042,1.287
		c0,7.51,4.754,14.224,11.815,16.701c1.912,0.677,3.902,1.02,5.915,1.02c7.813,0,14.807-5.247,17.004-12.759l9.162-31.29
		l46.493,9.488l-26.613,114.328c-58.193-30.904-119.428-28.418-161.262-20.572c-32.44,6.085-57.924,15.984-71.031,21.758
		l8.135-92.643L77.901,43.91z M237.243,368.872c-26.402,13.209-54.502,19.903-83.578,19.903c-50.146,0-89.612-20.083-101.866-27.099
		l0.536-1.529c5.113-14.562,7.706-29.744,7.706-45.125c0-11.66-1.502-23.289-4.465-34.562c-9.586-36.525-12.77-74.109-9.464-111.708
		l0.662-7.537c8.847-4.214,37.3-16.81,74.81-23.8c26.447-4.929,52.161-6.144,76.419-3.612c28.852,3.012,55.736,11.382,79.986,24.867
		c0.117,6.482,3.441,12.38,8.957,15.828c0.564,0.353,1.148,0.664,1.742,0.954c-31.796,34.598-46.093,82.465-37.645,129.489
		l1.896,10.55C243.425,331.458,237.88,349.78,237.243,368.872z M332.256,237.608c-4.642,7.878-10.289,15.11-16.788,21.498
		c-6.479,6.379-13.803,11.907-21.762,16.428c-12.042,6.829-22.498,15.743-31.041,26.129c-7.727-45.281,8.116-91.867,40.729-123.691
		c7-6.831,18.608-23.324,18.608-23.324l32.898,39.954C348.057,209.263,340.449,223.714,332.256,237.608z"/>
	<path d="M74.872,124.821c10.916,0,19.796-8.88,19.796-19.796s-8.88-19.796-19.796-19.796s-19.796,8.88-19.796,19.796
		S63.956,124.821,74.872,124.821z M74.872,97.229c4.299,0,7.796,3.497,7.796,7.796s-3.497,7.796-7.796,7.796
		s-7.796-3.497-7.796-7.796S70.573,97.229,74.872,97.229z"/>
	<path d="M128.291,111.692c10.916,0,19.796-8.88,19.796-19.795c0-10.916-8.88-19.796-19.796-19.796s-19.796,8.88-19.796,19.796
		C108.495,102.812,117.376,111.692,128.291,111.692z M128.291,84.101c4.299,0,7.796,3.497,7.796,7.796
		c0,4.298-3.497,7.795-7.796,7.795s-7.796-3.497-7.796-7.795C120.495,87.598,123.992,84.101,128.291,84.101z"/>
	<path d="M194.511,108.539c10.915,0,19.796-8.88,19.796-19.795c0-10.916-8.881-19.796-19.796-19.796
		c-10.916,0-19.796,8.88-19.796,19.796C174.715,99.658,183.595,108.539,194.511,108.539z M194.511,80.947
		c4.299,0,7.796,3.497,7.796,7.796c0,4.298-3.497,7.795-7.796,7.795s-7.796-3.497-7.796-7.795
		C186.715,84.444,190.212,80.947,194.511,80.947z"/>
	<path d="M254.424,123.517c10.915,0,19.796-8.88,19.796-19.796s-8.881-19.796-19.796-19.796c-10.915,0-19.796,8.88-19.796,19.796
		S243.509,123.517,254.424,123.517z M254.424,95.925c4.299,0,7.796,3.497,7.796,7.796s-3.497,7.796-7.796,7.796
		c-4.299,0-7.796-3.497-7.796-7.796S250.125,95.925,254.424,95.925z"/>
	<path d="M217.409,275.95l-1.521-0.186c-0.597-15.321-6.659-29.706-17.41-40.986c-12.03-12.62-28.262-19.569-45.707-19.569
		c-15.095,0-29.716,5.419-41.169,15.26c-10.689,9.179-18.073,21.831-20.775,35.547c-0.177,0.84-12.028,78.452-12.028,78.452
		c-0.397,2.61,0.958,5.173,3.339,6.314c1.827,0.875,35.337,16.62,78.991,16.62c13.693,0,28.39-1.551,43.412-5.595
		c2.542-0.684,4.342-2.946,4.437-5.577c0.218-6.034,0.882-14.998,2.021-27.277c1.084,0.13,2.165,0.197,3.239,0.197
		c6.008,0,11.794-2.014,16.571-5.819c5.646-4.497,9.169-10.927,9.92-18.106C242.231,290.836,231.771,277.703,217.409,275.95z
		 M119.42,239.572c9.28-7.972,21.124-12.363,33.351-12.363c14.131,0,27.278,5.629,37.021,15.849
		c8.25,8.654,13.087,19.562,13.99,31.228l-99.532-12.148C107.165,253.443,112.415,245.587,119.42,239.572z M91.36,341.688
		l4.089-26.839l103.631,12.652c-0.925,9.949-1.548,17.816-1.884,23.787C149.383,362.594,104.726,347.084,91.36,341.688z
		 M228.791,303.978c-0.413,3.952-2.353,7.492-5.461,9.967s-6.994,3.571-10.936,3.093L97.257,302.981l4.428-29.067l114.271,13.948
		C223.861,288.827,229.619,296.056,228.791,303.978z"/>
</g>
<g>
</g>
<g>
</g>
<g>
</g>
<g>
</g>
<g>
</g>
<g>
</g>
<g>
</g>
<g>
</g>
<g>
</g>
<g>
</g>
<g>
</g>
<g>
</g>
<g>
</g>
<g>
</g>
<g>
</g>
</svg>
